<svg width="44" height="44" viewBox="0 0 44 44" fill="none" xmlns="http://www.w3.org/2000/svg">
<path d="M0.875 22C0.875 33.6665 10.3335 43.125 22 43.125C33.6665 43.125 43.125 33.6665 43.125 22C43.125 10.3335 33.6665 0.875 22 0.875C10.3335 0.875 0.875 10.3335 0.875 22ZM22.4723 12.7212C22.6238 12.8715 22.7442 13.0502 22.8267 13.2471C22.9092 13.4439 22.9521 13.6551 22.9529 13.8685C22.9538 14.082 22.9126 14.2935 22.8317 14.491C22.7508 14.6885 22.6317 14.8681 22.4814 15.0196L17.1677 20.375H30.7344C31.1654 20.375 31.5787 20.5462 31.8834 20.851C32.1882 21.1557 32.3594 21.569 32.3594 22C32.3594 22.431 32.1882 22.8443 31.8834 23.149C31.5787 23.4538 31.1654 23.625 30.7344 23.625H17.1677L22.4814 28.9804C22.6317 29.132 22.7507 29.3118 22.8315 29.5094C22.9124 29.7071 22.9535 29.9187 22.9525 30.1322C22.9516 30.3457 22.9086 30.5569 22.826 30.7538C22.7435 30.9507 22.6229 31.1295 22.4713 31.2798C22.3196 31.4301 22.1398 31.549 21.9422 31.6299C21.7446 31.7107 21.533 31.7518 21.3195 31.7509C21.1059 31.75 20.8947 31.707 20.6978 31.6244C20.5009 31.5418 20.3222 31.4213 20.1719 31.2696L12.1088 23.1446C11.8068 22.8402 11.6373 22.4288 11.6373 22C11.6373 21.5712 11.8068 21.1598 12.1088 20.8554L20.1719 12.7304C20.3222 12.5786 20.501 12.4578 20.6981 12.3752C20.8951 12.2925 21.1065 12.2496 21.3202 12.2487C21.5338 12.2479 21.7456 12.2892 21.9433 12.3702C22.141 12.4513 22.3207 12.5706 22.4723 12.7212Z" fill="#808080"/>
</svg>
