<svg width="100" height="100" viewBox="0 0 100 100" fill="none" xmlns="http://www.w3.org/2000/svg">
<path d="M68.4153 16.6666C71.1757 16.6666 73.7408 18.032 75.2861 20.2842L75.6507 20.8655L90.5687 46.972C91.1683 48.0213 91.531 49.1858 91.6352 50.3842L91.6666 51.1066V69.8495C91.6666 70.8845 91.4738 71.9081 91.1006 72.8687L90.787 73.5766L86.1282 82.8933C84.8174 85.515 82.2358 87.2399 79.3467 87.4729L78.6749 87.5H70.8332C66.44 87.5 62.8409 84.1006 62.5228 79.7886L62.4999 79.1666H37.4999C37.4999 83.5599 34.1004 87.159 29.7885 87.4771L29.1666 87.5H21.325C18.3941 87.5 15.6967 85.9623 14.1961 83.4821L13.8715 82.8933L9.21304 73.5766C8.75018 72.6506 8.46483 71.6489 8.36921 70.6228L8.33325 69.8495V51.1066C8.33325 49.8979 8.59607 48.7069 9.10005 47.6148L9.43121 46.972L24.3493 20.8655C25.7188 18.4687 28.1769 16.919 30.899 16.6948L31.5846 16.6666H68.4153ZM68.4153 25H31.5846L16.6666 51.1066V69.8495L21.325 79.1666H29.1666V75.4166C29.1666 73.0541 30.9541 71.109 33.2505 70.8602L33.7499 70.8333H66.2499C68.6124 70.8333 70.5575 72.6209 70.8064 74.9172L70.8332 75.4166V79.1666H78.6749L83.3333 69.8495V51.1066L68.4153 25ZM68.977 46.2695C71.0341 45.2462 73.532 46.0808 74.5599 48.1366C75.5799 50.1758 74.7187 52.712 72.692 53.7291C65.8433 57.1437 57.5403 58.3333 49.9999 58.3333C42.3095 58.3333 34.2895 57.157 27.3269 53.7387C25.303 52.7358 24.428 50.1604 25.4398 48.1366C26.4054 46.2056 28.6435 45.4177 30.6071 46.101L31.721 46.5794L32.7388 46.9843L33.6494 47.3147L34.7364 47.6769L35.9922 48.0564L37.4089 48.4387L38.9786 48.8096L40.6936 49.1545C43.3713 49.6452 46.5129 50 49.9999 50C56.3162 50 63.2028 49.0345 68.977 46.2695Z" fill="#09244B"/>
</svg>
