<svg width="58" height="49" viewBox="0 0 58 49" fill="none" xmlns="http://www.w3.org/2000/svg">
<path d="M49.1417 23.333H11.1781C10.6747 23.333 10.1919 23.4559 9.83588 23.6747C9.4799 23.8935 9.27992 24.1903 9.27992 24.4997C9.27992 24.8091 9.4799 25.1058 9.83588 25.3246C10.1919 25.5434 10.6747 25.6663 11.1781 25.6663H49.1417C49.6452 25.6663 50.128 25.5434 50.484 25.3246C50.8399 25.1058 51.0399 24.8091 51.0399 24.4997C51.0399 24.1903 50.8399 23.8935 50.484 23.6747C50.128 23.4559 49.6452 23.333 49.1417 23.333Z" fill="white" stroke="white" stroke-width="0.651042"/>
<path d="M48.4689 24.4998L35.6593 35.0808C35.3693 35.3204 35.2063 35.6453 35.2063 35.9842C35.2063 36.3231 35.3693 36.648 35.6593 36.8876C35.9493 37.1272 36.3426 37.2618 36.7527 37.2618C37.1629 37.2618 37.5562 37.1272 37.8462 36.8876L51.7462 25.4033C51.89 25.2847 52.0042 25.1439 52.082 24.9889C52.1599 24.8339 52.2 24.6677 52.2 24.4998C52.2 24.332 52.1599 24.1658 52.082 24.0108C52.0042 23.8557 51.89 23.7149 51.7462 23.5964L37.8462 12.112C37.5562 11.8724 37.1629 11.7378 36.7527 11.7378C36.3426 11.7378 35.9493 11.8724 35.6593 12.112C35.3693 12.3516 35.2063 12.6766 35.2063 13.0154C35.2063 13.3543 35.3693 13.6793 35.6593 13.9189L48.4689 24.4998Z" fill="white" stroke="white" stroke-width="0.651042"/>
</svg>
