<svg width="70" height="70" viewBox="0 0 70 70" fill="none" xmlns="http://www.w3.org/2000/svg">
<path d="M31.2558 31.9236L21.6161 22.2842L24.4046 19.4958L34.0442 29.1352L35.6312 27.5485L25.5091 17.4263L28.4228 14.5127C28.446 14.4895 28.4674 14.4654 28.4882 14.4404C28.5113 14.4209 28.5339 14.4012 28.5557 14.3796L33.8256 9.10969C34.2583 8.67725 34.2647 7.97779 33.8398 7.53742L33.78 7.47496C33.7301 7.4225 33.68 7.37023 33.6286 7.31871C30.9942 4.68433 27.5743 3.11151 24.4804 3.11151C22.3938 3.11151 20.5987 3.80358 19.2894 5.11304C19.2609 5.14143 19.2346 5.17149 19.2095 5.20249C19.1923 5.21758 19.1749 5.23224 19.1586 5.24849L7.20582 17.2015C6.76766 17.6398 6.76766 18.3502 7.20582 18.7886L8.97149 20.5541L7.51343 22.0121L5.74776 20.2463C5.53721 20.0359 5.25185 19.9175 4.95423 19.9175C4.65665 19.9175 4.37129 20.0359 4.16074 20.2463L0.500403 23.907C0.062203 24.3453 0.062203 25.0557 0.500403 25.4937L8.17765 33.171C8.3882 33.3814 8.67356 33.4998 8.97114 33.4998C9.26876 33.4998 9.55428 33.3814 9.76467 33.171L13.4247 29.5104C13.8629 29.0723 13.8629 28.362 13.4247 27.9236L11.6593 26.1581L13.1174 24.7001L14.8828 26.4656C15.1019 26.6848 15.3891 26.794 15.6763 26.794C15.9634 26.794 16.2507 26.6844 16.4697 26.4656L19.5467 23.3885L29.6689 33.5107L31.2558 31.9236ZM24.4804 5.35575C26.7675 5.35575 29.3154 6.4558 31.4311 8.33063L27.7623 11.9992L21.777 6.01379C22.5355 5.58068 23.4517 5.35575 24.4804 5.35575ZM8.97114 30.7905L2.88079 24.7003L4.95423 22.6267L11.0443 28.7169L8.97114 30.7905ZM10.1534 24.4903L9.18122 23.5181L10.5582 22.1411L11.5303 23.1132L10.1534 24.4903ZM15.6763 24.0851L9.58625 17.9949L19.9522 7.62884L26.0425 13.7193L15.6763 24.0851Z" fill="white"/>
<path d="M68.5998 60.5168L45.5117 37.4289L43.9249 39.0156L66.2197 61.3105L63.4313 64.0992L41.1362 41.804L39.5494 43.3911L62.6379 66.4796C62.8483 66.6899 63.1338 66.8083 63.4313 66.8083C63.7291 66.8083 64.0146 66.6899 64.225 66.4796L68.6001 62.1038C69.0381 61.6656 69.0381 60.9551 68.5998 60.5168Z" fill="white"/>
<path d="M69.2394 10.2772C69.1123 9.91276 68.8064 9.63945 68.4301 9.55335C68.054 9.46756 67.6598 9.58088 67.3869 9.85392L62.853 14.3874L58.6022 10.1363L63.1361 5.60301C63.4091 5.32997 63.5227 4.93583 63.4366 4.55951C63.3505 4.1831 63.0772 3.87736 62.7127 3.75007C61.5822 3.35539 60.3996 3.15515 59.198 3.15515C56.3567 3.15515 53.6858 4.2615 51.677 6.27031C49.6676 8.27931 48.5611 10.9504 48.5611 13.7917C48.5611 15.1661 48.8226 16.5002 49.3172 17.7394L20.6856 46.3708C19.4465 45.8761 18.1128 45.615 16.7385 45.615C13.8973 45.615 11.2262 46.7215 9.21708 48.7306C6.347 51.6006 5.35763 55.9326 6.69673 59.7663C6.82398 60.1308 7.12972 60.4041 7.50609 60.4902C7.88226 60.576 8.27644 60.4629 8.54959 60.1899L13.0833 55.6561L17.3344 59.9066L12.8006 64.4405C12.5275 64.7135 12.4141 65.1076 12.5 65.484C12.5861 65.8603 12.8594 66.1659 13.2238 66.2933C14.3541 66.6881 15.5365 66.8882 16.7383 66.8885C16.7386 66.8885 16.7386 66.8885 16.7389 66.8885C19.5795 66.8885 22.2506 65.7817 24.2597 63.7726C27.3536 60.6784 28.1379 56.1367 26.6149 52.3073L55.2506 23.6721C56.4898 24.1671 57.8236 24.4283 59.1981 24.4283C59.1984 24.4283 59.198 24.4283 59.1984 24.4283C62.039 24.4283 64.7103 23.3221 66.7191 21.313C69.5892 18.4429 70.5785 14.111 69.2394 10.2772ZM22.6726 62.1859C21.0874 63.7711 18.9802 64.6443 16.7389 64.6443C16.7389 64.6443 16.7385 64.6443 16.7383 64.6443C16.4305 64.644 16.1242 64.6273 15.8205 64.5945L19.7147 60.7003C19.9252 60.4896 20.0434 60.2043 20.0434 59.9066C20.0434 59.6092 19.9252 59.3237 19.7147 59.1133L13.8767 53.2757C13.4387 52.8377 12.7281 52.8377 12.2898 53.2757L8.39808 57.1674C8.13228 54.6733 8.99436 52.1273 10.8042 50.3173C12.3894 48.7321 14.4968 47.8592 16.7385 47.8592C18.9801 47.8592 21.0874 48.7321 22.6725 50.3176C25.9445 53.5894 25.9445 58.9138 22.6726 62.1859ZM25.6387 50.1097L22.8797 47.3505L50.1992 20.0315L52.9585 22.7905L25.6387 50.1097ZM65.1323 19.7263C63.5471 21.3111 61.4398 22.184 59.198 22.184C56.9563 22.184 54.8486 21.3111 53.2634 19.7259C51.6786 18.1408 50.8054 16.0333 50.8054 13.7916C50.8054 11.5499 51.6786 9.44251 53.2638 7.85725C54.8486 6.27221 56.9563 5.39931 59.1981 5.39931C59.5061 5.39931 59.8123 5.416 60.116 5.44909L56.2218 9.34292C56.0114 9.55331 55.8931 9.83883 55.8931 10.1363C55.8931 10.434 56.0114 10.7192 56.2218 10.9296L62.0593 16.7675C62.4977 17.2058 63.2084 17.2058 63.6464 16.7678L67.5381 12.8761C67.8039 15.3702 66.942 17.9163 65.1323 19.7263Z" fill="white"/>
</svg>
